<?xml version="1.0" encoding="utf-8"?>
<!-- Svg Vector Icons : http://www.sfont.cn -->
<!DOCTYPE svg PUBLIC "-//W3C//DTD SVG 1.1//EN" "http://www.w3.org/Graphics/SVG/1.1/DTD/svg11.dtd">
<svg version="1.1" xmlns="http://www.w3.org/2000/svg" xmlns:xlink="http://www.w3.org/1999/xlink" x="0px" y="0px" viewBox="0 0 1000 1000" enable-background="new 0 0 1000 1000" xml:space="preserve">
<metadata> Svg Vector Icons : http://www.sfont.cn </metadata>
<g><path d="M781.1,818c-31.6,0-57.4,25.7-57.4,57.3c0,31.7,25.7,57.4,57.4,57.4c31.6,0,57.3-25.7,57.3-57.4C838.4,843.7,812.7,818,781.1,818 M414,818c-31.6,0-57.4,25.7-57.4,57.3c0,31.7,25.8,57.4,57.4,57.4c31.6,0,57.3-25.7,57.3-57.4C471.3,843.7,445.7,818,414,818 M280.2,627.8l-56.5-351.4C187.6,69.6,11.9,67.3,10.2,67.3L10,122c5.4,0.1,131.7,3.4,159.6,163.5l56.2,348.3C228.7,680.5,261,769,362.6,769H900v-54.8H362.6C288.6,714.2,281.1,638.9,280.2,627.8 M913.2,252.3c-102.6,0-545.9-54.7-545.9-54.7s-109.5-22.3-91,95.9c18.4,118.1,46.3,285.2,46.3,285.2s22.4,90,116.5,90h383.4c85.6,0,115.4-103.3,115.4-103.3l47.9-225.3C985.9,340.1,1015.9,252.3,913.2,252.3"/></g>
</svg>