<?xml version="1.0" encoding="utf-8"?>
<!-- Svg Vector Icons : http://www.sfont.cn -->
<!DOCTYPE svg PUBLIC "-//W3C//DTD SVG 1.1//EN" "http://www.w3.org/Graphics/SVG/1.1/DTD/svg11.dtd">
<svg version="1.1" xmlns="http://www.w3.org/2000/svg" xmlns:xlink="http://www.w3.org/1999/xlink" x="0px" y="0px" viewBox="0 0 1000 1000" enable-background="new 0 0 1000 1000" xml:space="preserve">
<metadata> Svg Vector Icons : http://www.sfont.cn </metadata>
<g><g><g><path d="M638.2,466.6c0-14.8,0.8-30,1.9-45.9h-1.5c-8,16-14.4,30.3-22.8,45.9l-33,53.9v0.7h55.4V466.6z"/><path d="M500,10C229.9,10,10,229.8,10,500c0,270.2,219.8,490,490,490c270.2,0,490-219.8,490-490C990,229.8,770.2,10,500,10z M889,521.3c-6.2,7.2-15.1,11.7-24.6,12.4c-0.9,0.1-1.7,0.1-2.6,0.1c-0.2,0-0.4-0.1-0.6-0.1c-0.7,0-1.3,0.2-2,0.2c-12.9,0-24.1-6.8-30.5-17.1l-65.4-56.4c-11-9.5-15.2-24.7-10.7-38.5c4.6-13.8,17.1-23.5,31.6-24.6l22.7-1.6C763.7,262,638.2,165.1,490.4,165.1c-183.5,0-332.9,149.3-332.9,332.9c0,183.5,149.3,332.9,332.9,332.9c106.2,0,207-51.4,269.6-137.5c11.7-16,34.2-19.7,50.3-8c16.1,11.7,19.6,34.2,8,50.3c-76,104.7-198.6,167.2-327.8,167.2c-223.2,0-404.8-181.6-404.8-404.8S267.2,93.1,490.4,93.1c185.9,0,342.5,126.1,389.8,297.1l43.6-3.2c14.3-1.2,28.2,6.7,34.8,19.7c6.6,13,4.6,28.7-4.9,39.7L889,521.3z M529,564.5V527l93.3-150.3h70.6v144.6h29.6v43.2h-29.6v58.8h-54.7v-58.8L529,564.5L529,564.5L529,564.5z M397.5,418.8c-21.3,0-39.8,10.6-52.7,20.5l-16.3-41.4c18.6-14,47.4-25.4,80.8-25.4c55.8,0,86.5,32.6,86.5,77.4c0,41.4-30,74.4-65.6,106.2l-22.8,19v0.7h93v47.4H325.5v-34.9l31.9-28.8c53.9-48.2,80.1-75.9,80.8-104.7C438.2,434.7,426,418.8,397.5,418.8z"/></g></g><g></g><g></g><g></g><g></g><g></g><g></g><g></g><g></g><g></g><g></g><g></g><g></g><g></g><g></g><g></g></g>
</svg>