<?xml version="1.0" encoding="utf-8"?>
<!-- Svg Vector Icons : http://www.sfont.cn -->
<!DOCTYPE svg PUBLIC "-//W3C//DTD SVG 1.1//EN" "http://www.w3.org/Graphics/SVG/1.1/DTD/svg11.dtd">
<svg version="1.1" xmlns="http://www.w3.org/2000/svg" xmlns:xlink="http://www.w3.org/1999/xlink" x="0px" y="0px" viewBox="0 0 1000 1000" enable-background="new 0 0 1000 1000" xml:space="preserve">
<metadata> Svg Vector Icons : http://www.sfont.cn </metadata>
<g><g transform="translate(0.000000,511.000000) scale(0.100000,-0.100000)"><path d="M6984.7,4863.1c-90-63.4-106.3-128.8-106.3-443.7V4127l-175.8-24.5c-586.9-85.9-1046.9-378.3-1251.4-801.6c-126.8-257.6-155.4-390.5-155.4-715.7c0-464.2,100.2-725.9,388.5-1016.2c143.1-145.2,194.2-179.9,398.7-280.1c128.8-63.4,357.8-155.4,509.1-204.5l276-90l6.1-881.3c2.1-484.6-2-881.3-8.2-881.3c-8.2,0-81.8,32.7-163.6,71.6c-284.2,137-421.2,316.9-572.5,754.5c-90,259.7-135,333.3-243.3,394.6c-333.3,186.1-746.3-53.2-746.3-433.5c2-204.5,106.3-513.3,243.3-713.6c114.5-165.6,292.4-216.7,993.7-280.1c705.4-65.4,1200.3-169.7,1637.8-347.6c57.3-22.5,73.6-18.4,206.5,51.1c376.2,198.3,646.1,529.6,783.1,963.1c65.4,202.4,79.8,599.1,30.7,819.9c-67.5,316.9-259.7,627.7-511.2,832.2c-212.7,169.7-488.7,288.3-1077.6,453.9l-118.6,32.7v777c0,858.8-10.2,805.6,132.9,746.3c190.2-79.7,384.4-272,447.8-445.8c18.4-49.1,51.1-141.1,75.6-206.5c81.8-224.9,212.7-319,443.7-321c153.3,0,251.5,42.9,355.8,159.5c106.3,118.6,137,263.8,92,445.8c-47,190.2-139,366-290.4,552.1C8319.9,3869.4,8005,4035,7502,4106.6l-163.6,24.5l-10.2,314.9c-6.1,173.8-18.4,331.3-26.6,349.6C7256.6,4883.6,7072.6,4924.5,6984.7,4863.1z M6878.4,2687.5c0-486.6-6.1-715.7-22.5-715.7c-42.9,0-359.9,169.7-445.8,241.3c-130.8,106.3-194.2,255.6-194.2,464.2c0,231.1,43,347.6,182,478.5c108.4,102.2,370.1,247.4,443.7,247.4C6876.3,3403.2,6878.4,3360.2,6878.4,2687.5z M7544.9,785.9c300.6-120.6,490.7-280.1,562.3-470.3c61.3-163.6,49.1-435.5-26.6-597.1c-100.2-214.7-294.4-382.4-541.9-464.2c-233.1-77.7-210.6-163.6-210.6,775c0,732,4.1,817.9,32.7,817.9C7379.3,847.2,7461.1,820.6,7544.9,785.9z"/><path d="M149.1-432.8L100-485.9v-1541.8v-1541.7l57.2-55.2l55.2-57.2h441.7h441.7l59.3,67.5l59.3,65.4v1521.3v1521.3l-53.2,63.4l-53.2,63.4H654.1h-456L149.1-432.8z"/><path d="M3177.4-557.5C2602.8-598.4,1645.8-809,1549.7-913.3c-36.8-40.9-38.8-87.9-38.8-1116.4v-1073.5l63.4-55.2c55.2-49.1,92-61.3,265.8-81.8c110.4-14.3,249.5-38.8,304.7-57.2c147.2-47,584.8-245.4,1318.9-599.1c832.2-400.8,1466.1-683,1656.3-734.1c280.1-77.7,539.8-57.2,1840.3,149.3c388.5,61.3,764.7,118.6,838.3,124.7c316.9,30.7,423.3,81.8,1053.1,501c535.7,357.8,666.6,453.9,836.3,613.4c130.8,124.7,184,212.7,206.5,341.5c12.3,75.7,6.1,92-34.8,132.9c-26.6,26.6-67.5,57.3-87.9,69.5c-36.8,20.4-34.8,26.6,36.8,110.4c98.1,114.5,112.5,196.3,57.2,310.8c-83.8,171.7-319,261.7-576.6,220.8c-247.4-36.8-456-137-678.9-321c-265.8-218.8-316.9-255.6-453.9-323.1c-284.2-139-803.6-220.8-1421.1-222.9c-449.8-2-613.4,26.6-950.8,163.6c-122.7,51.1-298.5,122.7-388.5,157.4l-163.6,65.4l173.8,18.4c249.5,26.6,1719.6-36.8,2059.1-92c294.4-45,509.1,79.8,652.3,378.3c77.7,161.5,90,282.2,36.8,382.4c-51.1,102.2-173.8,222.9-276,274c-237.2,122.7-838.3,251.5-1404.8,306.7c-924.2,87.9-791.3,57.2-1261.6,284.2c-175.8,85.9-409,188.1-517.3,229C4246.8-588.2,3711-518.7,3177.4-557.5z"/></g></g>
</svg>