<?xml version="1.0" encoding="utf-8"?>
<!-- Svg Vector Icons : http://www.sfont.cn -->
<!DOCTYPE svg PUBLIC "-//W3C//DTD SVG 1.1//EN" "http://www.w3.org/Graphics/SVG/1.1/DTD/svg11.dtd">
<svg version="1.1" xmlns="http://www.w3.org/2000/svg" xmlns:xlink="http://www.w3.org/1999/xlink" x="0px" y="0px" viewBox="0 0 1000 1000" enable-background="new 0 0 1000 1000" xml:space="preserve">
<metadata> Svg Vector Icons : http://www.sfont.cn </metadata>
<g><path d="M26,590.4h155.2v399.4H26V590.4z M291.9,442h155.2v547.8H291.9V442L291.9,442z M571.4,527h155.2v463H571.4V527z M818.7,319.7H974V990H818.7V319.7z M896.4,10c-38.4,0-69.6,31.1-69.6,69.6c0,3.8,1.6,7,2.2,10.7L690.1,224.8c-10.8-6.9-22.9-11.9-36.7-11.9c-26.7,0-49.2,15.6-60.9,37.7l-157.4-31c-8.6-28.6-34.2-49.8-65.6-49.8c-33.9,0-60.8,24.7-67,56.9l-157.6,94.5c-11.7-8.9-25.5-15.1-41.3-15.1c-38.4,0-69.6,31.1-69.6,69.6s31.1,69.6,69.6,69.6c33.9,0,60.8-24.8,67-56.9l157.6-94.5c11.7,8.9,25.5,15.1,41.3,15.1c18.7,0,35.5-7.6,48-19.6l181.7,35.9c12.8,14.8,31,24.6,52,24.6c34.5,0,61.9-25.6,67.3-58.6l157.1-146.3c6.6,2.1,13.3,4.2,20.7,4.2c38.4,0,69.6-31.1,69.6-69.6C965.9,41.1,934.8,10,896.4,10z"/></g>
</svg>