<?xml version="1.0" encoding="utf-8"?>
<!-- Svg Vector Icons : http://www.sfont.cn -->
<!DOCTYPE svg PUBLIC "-//W3C//DTD SVG 1.1//EN" "http://www.w3.org/Graphics/SVG/1.1/DTD/svg11.dtd">
<svg version="1.1" xmlns="http://www.w3.org/2000/svg" xmlns:xlink="http://www.w3.org/1999/xlink" x="0px" y="0px" viewBox="0 0 1000 1000" enable-background="new 0 0 1000 1000" xml:space="preserve">
<metadata> Svg Vector Icons : http://www.sfont.cn </metadata>
<g><path d="M733.6,134.5c-80.1-80-186.6-124-299.8-124c-113.2,0-219.7,44.1-299.8,124c-165.3,165.1-165.3,433.8,0,598.9c80.1,80,186.6,124,299.8,124c113.3,0,219.7-44.1,299.8-124C898.9,568.3,898.9,299.7,733.6,134.5z M696.2,696c-70.1,70-163.2,108.5-262.3,108.5c-99.1,0-192.3-38.6-262.4-108.5c-144.7-144.5-144.7-379.6,0-524.1c70.1-70,163.2-108.5,262.4-108.5c99.1,0,192.3,38.6,262.3,108.5C840.9,316.4,840.9,551.5,696.2,696z M982.2,944.3L849.9,812.1c-10.3-10.3-27.1-10.3-37.4,0c-10.3,10.3-10.3,27.1,0,37.4l132.4,132.2c5.2,5.1,11.9,7.7,18.7,7.7c6.8,0,13.5-2.6,18.7-7.7C992.6,971.4,992.6,954.7,982.2,944.3z M460.5,195.6c0,14.5,11.7,26.2,26.2,26.4v-52.8C472.3,169.4,460.5,181.1,460.5,195.6z M486.8,169v53c87.4,0,158.6,71.2,158.6,158.7c0,14.7,11.9,26.5,26.5,26.5s26.5-11.8,26.5-26.5C698.3,264,603.4,169,486.8,169z"/></g>
</svg>