<?xml version="1.0" encoding="utf-8"?>
<!-- Svg Vector Icons : http://www.sfont.cn -->
<!DOCTYPE svg PUBLIC "-//W3C//DTD SVG 1.1//EN" "http://www.w3.org/Graphics/SVG/1.1/DTD/svg11.dtd">
<svg version="1.1" xmlns="http://www.w3.org/2000/svg" xmlns:xlink="http://www.w3.org/1999/xlink" x="0px" y="0px" viewBox="0 0 1000 1000" enable-background="new 0 0 1000 1000" xml:space="preserve">
<metadata> Svg Vector Icons : http://www.sfont.cn </metadata>
<g><g transform="translate(0.000000,511.000000) scale(0.100000,-0.100000)"><path d="M2034.4,5003.2c-418.1-59.5-596.5-176.4-616.3-402.3c-15.9-200.2-4-216,552.9-776.8c281.4-283.4,519.2-539,531.1-568.8c13.9-35.7,13.9-73.3,4-99.1c-9.9-25.8-257.6-283.4-550.9-576.7l-531.1-529.1l-465.7,467.7c-535.1,537.1-588.6,582.6-695.6,582.6c-63.4,0-81.3-9.9-107-57.5c-45.6-91.2-69.4-362.7-47.6-564.8c59.5-521.2,269.5-961.2,626.2-1311.9c263.6-257.6,523.2-420.1,866-541c245.7-87.2,467.7-120.9,786.8-120.9c257.6,0,283.4-4,424.1-59.4c223.9-89.2,436-200.2,646.1-338.9C3617.9,1.3,3818-189,4880.2-1247.2c844.2-842.2,1278.2-1286.1,1369.4-1409c166.5-222,305.2-441.9,614.3-971.1c134.7-227.9,283.4-475.6,330.9-548.9C7321.7-4368.5,7510-4533,7726-4640c261.6-128.8,388.4-156.6,693.6-154.6c237.8,0,273.5,6,443.9,65.4c410.2,138.7,721.3,414.2,895.7,784.8c103.1,223.9,140.7,394.4,140.7,644.1c0,348.8-111,671.8-317.1,929.4c-132.8,164.5-229.9,235.8-697.6,511.3C7704.2-1160,7860.8-1288.9,6451.7,116.2c-669.8,665.9-1272.3,1282.2-1339.6,1369.4c-202.2,257.6-352.8,527.1-473.6,842.2c-33.7,93.1-41.6,158.5-43.6,426.1c-2,243.7-13.9,360.7-45.6,501.4c-194.2,850.2-860.1,1518-1704.3,1710.3C2646.8,5009.1,2222.7,5029,2034.4,5003.2z M2846.9,4670.3c329-89.2,640.1-271.5,887.8-517.2c176.4-176.4,291.3-340.9,398.3-568.8c132.8-285.4,160.5-424.1,166.5-832.3l4-356.7l71.3-186.3c39.6-101.1,120.9-279.4,182.3-394.4c222-426.1,281.4-493.5,1563.6-1781.6c654-657.9,1252.5-1248.5,1329.7-1311.9c186.3-154.6,620.3-436,1127.6-733.2c229.9-134.8,477.6-283.4,552.9-332.9c315.1-208.1,507.3-616.3,481.6-1024.6c-13.9-208.1-45.6-317.1-142.7-501.4c-95.1-180.4-220-319.1-394.4-436c-208.1-138.7-350.8-184.3-616.3-196.2c-327-15.8-543,49.5-798.6,239.8c-142.7,105-178.4,156.5-560.8,806.6c-315.1,535.1-515.3,846.2-681.7,1058.3c-168.4,214-2501,2532.7-2675.4,2659.5c-261.6,190.2-552.9,348.8-881.9,477.6c-118.9,45.6-154.6,49.5-475.6,53.5c-281.4,4-374.6,11.9-499.4,45.6c-293.3,79.3-560.8,208.1-745.1,356.7l-87.2,69.4l852.2,854.1c784.8,788.7,852.1,862.1,875.9,949.3c29.7,111,15.9,261.6-31.7,354.7c-17.8,35.7-263.6,299.2-547,584.6c-346.8,348.8-513.3,529.1-507.3,550.9c9.9,59.4,99.1,109,243.7,138.7C2145.4,4737.6,2644.8,4723.8,2846.9,4670.3z"/><path d="M3126.4,2989.7c-9.9-2-43.6-9.9-77.3-17.8c-85.2-17.8-1127.6-1056.3-1183.1-1177.2c-69.4-150.6-47.6-194.2,247.7-493.5c144.7-146.7,287.4-279.4,319.1-295.3c37.7-19.8,89.2-27.7,146.7-19.8c85.2,9.9,107,27.8,671.8,594.5c566.8,564.8,584.6,586.6,594.5,671.8c5.9,57.5,0,109-19.8,146.7c-15.9,31.7-148.6,174.4-295.3,317.1C3277,2966,3211.6,3009.6,3126.4,2989.7z M3524.7,2208.9l-69.4-69.4l-231.9,231.9l-231.9,233.8l67.4,69.4l67.4,69.4l233.9-231.9l233.8-233.8L3524.7,2208.9z M3043.1,2195c118.9-116.9,214-221.9,214-233.8c0-25.8-360.7-386.4-386.4-386.4c-11.9,0-118.9,97.1-237.8,218l-218,218l198.2,198.2c109,109,202.1,198.2,208.1,198.2C2825.2,2407.1,2926.2,2312,3043.1,2195z M2623,1307.2l-69.4-69.4l-227.9,227.9l-225.9,227.9l67.4,69.4l67.4,69.4l229.9-227.9l227.9-227.9L2623,1307.2z"/><path d="M8158-2555.2c-206.1-67.4-384.4-225.9-477.6-424.1c-47.6-99.1-53.5-136.7-53.5-321c0-196.2,4-218,65.4-340.9c81.3-168.4,253.7-331,414.2-394.4c162.5-63.4,424.1-63.4,586.6,0c160.5,63.4,332.9,225.9,414.2,394.4c61.4,122.9,65.4,144.7,65.4,340.9c0,184.3-5.9,220-53.5,323c-75.3,160.5-227.9,313.1-378.5,382.5c-103.1,45.6-154.6,55.5-311.1,61.4C8308.7-2529.4,8211.5-2537.4,8158-2555.2z"/></g></g>
</svg>