<?xml version="1.0" encoding="utf-8"?>
<!-- Svg Vector Icons : http://www.sfont.cn -->
<!DOCTYPE svg PUBLIC "-//W3C//DTD SVG 1.1//EN" "http://www.w3.org/Graphics/SVG/1.1/DTD/svg11.dtd">
<svg version="1.1" xmlns="http://www.w3.org/2000/svg" xmlns:xlink="http://www.w3.org/1999/xlink" x="0px" y="0px" viewBox="0 0 1000 1000" enable-background="new 0 0 1000 1000" xml:space="preserve">
<metadata> Svg Vector Icons : http://www.sfont.cn </metadata>
<g><path d="M761.3,320.3H238.7c-18,0-32.7,14.6-32.7,32.7v294c0,18,14.6,32.7,32.7,32.7h522.7c18,0,32.7-14.6,32.7-32.7V353C794,335,779.4,320.3,761.3,320.3z M516.3,393.8c0-4.5,3.6-8.2,8.2-8.2h32.7c4.5,0,8.2,3.7,8.2,8.2v16.3c0,4.5-3.7,8.2-8.2,8.2h-32.7c-4.5,0-8.2-3.7-8.2-8.2V393.8z M516.3,459.2c0-4.5,3.6-8.2,8.2-8.2h32.7c4.5,0,8.2,3.7,8.2,8.2v16.3c0,4.5-3.7,8.2-8.2,8.2h-32.7c-4.5,0-8.2-3.7-8.2-8.2V459.2z M516.3,524.5c0-4.5,3.6-8.2,8.2-8.2h32.7c4.5,0,8.2,3.7,8.2,8.2v16.3c0,4.5-3.7,8.2-8.2,8.2h-32.7c-4.5,0-8.2-3.7-8.2-8.2V524.5z M434.7,393.8c0-4.5,3.6-8.2,8.2-8.2h32.7c4.5,0,8.2,3.7,8.2,8.2v16.3c0,4.5-3.7,8.2-8.2,8.2h-32.7c-4.5,0-8.2-3.7-8.2-8.2V393.8z M434.7,459.2c0-4.5,3.6-8.2,8.2-8.2h32.7c4.5,0,8.2,3.7,8.2,8.2v16.3c0,4.5-3.7,8.2-8.2,8.2h-32.7c-4.5,0-8.2-3.7-8.2-8.2V459.2z M434.7,524.5c0-4.5,3.6-8.2,8.2-8.2h32.7c4.5,0,8.2,3.7,8.2,8.2v16.3c0,4.5-3.7,8.2-8.2,8.2h-32.7c-4.5,0-8.2-3.7-8.2-8.2V524.5z M353,393.8c0-4.5,3.6-8.2,8.2-8.2h32.7c4.5,0,8.2,3.7,8.2,8.2v16.3c0,4.5-3.7,8.2-8.2,8.2h-32.7c-4.5,0-8.2-3.7-8.2-8.2V393.8z M353,459.2c0-4.5,3.6-8.2,8.2-8.2h32.7c4.5,0,8.2,3.7,8.2,8.2v16.3c0,4.5-3.7,8.2-8.2,8.2h-32.7c-4.5,0-8.2-3.7-8.2-8.2V459.2z M353,524.5c0-4.5,3.6-8.2,8.2-8.2h32.7c4.5,0,8.2,3.7,8.2,8.2v16.3c0,4.5-3.7,8.2-8.2,8.2h-32.7c-4.5,0-8.2-3.7-8.2-8.2V524.5z M320.3,606.2c0,4.5-3.7,8.2-8.2,8.2h-32.7c-4.5,0-8.2-3.7-8.2-8.2v-16.3c0-4.5,3.6-8.2,8.2-8.2h32.7c4.5,0,8.2,3.7,8.2,8.2V606.2z M320.3,540.8c0,4.5-3.7,8.2-8.2,8.2h-32.7c-4.5,0-8.2-3.7-8.2-8.2v-16.3c0-4.5,3.6-8.2,8.2-8.2h32.7c4.5,0,8.2,3.7,8.2,8.2V540.8z M320.3,475.5c0,4.5-3.7,8.2-8.2,8.2h-32.7c-4.5,0-8.2-3.7-8.2-8.2v-16.3c0-4.5,3.6-8.2,8.2-8.2h32.7c4.5,0,8.2,3.7,8.2,8.2V475.5z M320.3,410.2c0,4.5-3.7,8.2-8.2,8.2h-32.7c-4.5,0-8.2-3.7-8.2-8.2v-16.3c0-4.5,3.6-8.2,8.2-8.2h32.7c4.5,0,8.2,3.7,8.2,8.2V410.2z M647,606.2c0,4.5-3.7,8.2-8.2,8.2H361.2c-4.5,0-8.2-3.7-8.2-8.2v-16.3c0-4.5,3.6-8.2,8.2-8.2h277.7c4.5,0,8.2,3.7,8.2,8.2V606.2z M647,540.8c0,4.5-3.7,8.2-8.2,8.2h-32.7c-4.5,0-8.2-3.7-8.2-8.2v-16.3c0-4.5,3.6-8.2,8.2-8.2h32.7c4.5,0,8.2,3.7,8.2,8.2V540.8z M647,475.5c0,4.5-3.7,8.2-8.2,8.2h-32.7c-4.5,0-8.2-3.7-8.2-8.2v-16.3c0-4.5,3.6-8.2,8.2-8.2h32.7c4.5,0,8.2,3.7,8.2,8.2V475.5z M647,410.2c0,4.5-3.7,8.2-8.2,8.2h-32.7c-4.5,0-8.2-3.7-8.2-8.2v-16.3c0-4.5,3.6-8.2,8.2-8.2h32.7c4.5,0,8.2,3.7,8.2,8.2V410.2z M728.7,606.2c0,4.5-3.7,8.2-8.2,8.2h-32.7c-4.5,0-8.2-3.7-8.2-8.2v-16.3c0-4.5,3.6-8.2,8.2-8.2h32.7c4.5,0,8.2,3.7,8.2,8.2V606.2z M728.7,540.8c0,4.5-3.7,8.2-8.2,8.2h-32.7c-4.5,0-8.2-3.7-8.2-8.2v-16.3c0-4.5,3.6-8.2,8.2-8.2h32.7c4.5,0,8.2,3.7,8.2,8.2V540.8z M728.7,475.5c0,4.5-3.7,8.2-8.2,8.2h-32.7c-4.5,0-8.2-3.7-8.2-8.2v-16.3c0-4.5,3.6-8.2,8.2-8.2h32.7c4.5,0,8.2,3.7,8.2,8.2V475.5z M728.7,410.2c0,4.5-3.7,8.2-8.2,8.2h-32.7c-4.5,0-8.2-3.7-8.2-8.2v-16.3c0-4.5,3.6-8.2,8.2-8.2h32.7c4.5,0,8.2,3.7,8.2,8.2V410.2z M500,10C229.4,10,10,229.4,10,500s219.4,490,490,490s490-219.4,490-490S770.6,10,500,10z M826.7,647c0,36.1-29.3,65.3-65.3,65.3H238.7c-36.1,0-65.3-29.3-65.3-65.3V353c0-36.1,29.2-65.3,65.3-65.3h522.7c36.1,0,65.3,29.3,65.3,65.3V647z"/></g>
</svg>