<?xml version="1.0" encoding="utf-8"?>
<!-- Svg Vector Icons : http://www.sfont.cn -->
<!DOCTYPE svg PUBLIC "-//W3C//DTD SVG 1.1//EN" "http://www.w3.org/Graphics/SVG/1.1/DTD/svg11.dtd">
<svg version="1.1" xmlns="http://www.w3.org/2000/svg" xmlns:xlink="http://www.w3.org/1999/xlink" x="0px" y="0px" viewBox="0 0 1000 1000" enable-background="new 0 0 1000 1000" xml:space="preserve">
<metadata> Svg Vector Icons : http://www.sfont.cn </metadata>
<g><path d="M972.1,518.4H762l-108.5,52.5c47.3,19.8,80.5,66.7,80.5,121.2c0,72.5-58.9,131.4-131.4,131.4c-72.7,0-131.5-59-131.5-131.4c0-12.1,1.7-24.1,4.8-35.1L215.2,783.1V849c0,9.8,7.9,17.8,17.8,17.8h739.2c9.9,0,17.9-8,17.9-17.8V536.3C990,526.4,982,518.4,972.1,518.4z M615.2,637.2c12.4,0,21.7,3.2,28.3,9.7l6.7-31.7c-9.4-4.6-20.5-6.9-33.4-6.9c-23.4,0-42.3,7.7-56.6,23.1c-9.5,10.2-15.9,22.8-19.1,38h-13.5l-3.7,17.7h15c-0.2,2.7-0.3,5.8-0.3,9.2c0,2.1,0.1,4,0.1,5.9h-11.1l-3.7,17.7h16.8c3.1,15.4,9.6,28.3,19.3,38.7c14.2,15.2,32.5,22.8,54.7,22.8c13.2,0,24.7-2.6,34.6-7.4v-35c-8.8,9-20.3,13.5-34.8,13.5c-12.2,0-22.2-4.5-29.7-13.5c-4-4.7-6.9-11-8.8-19.2h52.1l3.7-17.7l-58.2,0c-0.2-2.8-0.3-5.6-0.3-8.3c0-2.8,0.1-4.9,0.2-6.7h61.3l3.7-17.7h-62.7c1.8-7.5,4.8-13.8,9.2-18.9C592.7,641.7,602.8,637.2,615.2,637.2z M845.5,424.8L709.1,143.3c-4.2-8.9-14.9-12.6-23.7-8.3L20.1,457.1c-8.9,4.3-12.6,15-8.3,23.8l136.3,281.5c4.3,8.9,14.9,12.5,23.8,8.3l665.3-322C846.1,444.3,849.7,433.7,845.5,424.8z M485.7,570.7c-65.3,31.6-144,4.3-175.6-61.1c-31.7-65.3-4.3-144,61-175.6c65.4-31.7,144-4.3,175.6,61C578.4,460.5,551.1,539.1,485.7,570.7z M464.4,429.6c-8.7-3.9-21.7-4.2-39.1-1l-18.1-37.4c7.5-0.2,13.8,2.9,18.9,9.8l22.7-14.9c-6.2-8.8-13.8-14.6-22.5-17.3c-8.8-2.8-18.5-2.4-29.1,1.3l-4.6-9.4l-13.9,6.7l4.5,9.5c-10.4,6.4-17.2,14.8-20.3,25c-3.2,10.3-2.2,20.7,2.8,31.1c5,10.3,12.2,17.7,21.5,22.1c9.2,4.5,21.1,5.4,35.3,2.9l19.3,40c-4.2,0-8.6-1.2-13.2-3.6c-4.7-2.3-8.6-5.8-12.1-10.3l-23.7,14.8c8,11.6,17.1,19.2,27.4,22.8c10.2,3.6,21.1,3.4,32.8-0.7l8.4,17.4l13.8-6.7l-8.7-17.9c11.6-7.8,18.9-17.3,22.2-28.6c3.1-11.3,1.9-22.7-3.6-34.2C480.1,440.6,473.1,433.5,464.4,429.6z M396.7,428.2c-3.4-1.9-6-4.5-7.6-7.9c-1.8-3.7-2.3-7.7-1.6-11.8c0.7-4.1,2.7-7.7,5.8-10.8l16,33.1C404.3,431,400.1,430.2,396.7,428.2z M464.9,480.4c-1.3,5-4.1,9.1-8.4,12.3l-18.1-37.3c6.5-1.1,11.9-0.7,15.9,1.1c4,1.9,7,5,9.1,9.2C465.6,470.5,466.1,475.4,464.9,480.4z"/></g>
</svg>