<?xml version="1.0" encoding="utf-8"?>
<!-- Svg Vector Icons : http://www.sfont.cn -->
<!DOCTYPE svg PUBLIC "-//W3C//DTD SVG 1.1//EN" "http://www.w3.org/Graphics/SVG/1.1/DTD/svg11.dtd">
<svg version="1.1" xmlns="http://www.w3.org/2000/svg" xmlns:xlink="http://www.w3.org/1999/xlink" x="0px" y="0px" viewBox="0 0 1000 1000" enable-background="new 0 0 1000 1000" xml:space="preserve">
<metadata> Svg Vector Icons : http://www.sfont.cn </metadata>
<g><path d="M500,990C229.8,990,10,770.2,10,500C10,229.8,229.8,10,500,10c270.2,0,490,219.8,490,490C990,770.2,770.2,990,500,990L500,990z M500,56.5C255.4,56.5,56.5,255.5,56.5,500c0,244.5,198.9,443.4,443.5,443.4c244.6,0,443.5-198.9,443.5-443.4C943.5,255.5,744.5,56.5,500,56.5L500,56.5z"/><path d="M687.9,349.7V212.9c0-8.5-6.9-15.5-15.4-15.5H332.7c-8.5,0-15.4,6.9-15.4,15.5v136.7h-3c-39.5,0-71.6,32.1-71.6,71.6v309.8c0,39.5,32.1,71.6,71.6,71.6h371.5c39.5,0,71.6-32.1,71.6-71.6V421.2C757.4,382.4,726.4,350.8,687.9,349.7z M418.4,351.4c-11.3,0-20.4-9.1-20.4-20.4c0-11.3,9.1-20.4,20.4-20.4h43.1l-40.9-40.9c-8-8-8-20.9,0-28.8c7.9-8,20.9-8,28.8,0l50.6,50.6l50.6-50.6c8-8,20.9-8,28.8,0c8,8,8,20.9,0,28.8l-40.9,40.9h38.2c11.3,0,20.4,9.1,20.4,20.4c0,11.3-9.2,20.4-20.4,20.4h-56.4v40.8h56.4c11.3,0,20.4,9.1,20.4,20.4c0,11.3-9.2,20.4-20.4,20.4h-56.4v54.4c0,11.3-9.1,20.4-20.4,20.4c-11.3,0-20.4-9.1-20.4-20.4V433h-61.2c-11.3,0-20.4-9.1-20.4-20.4c0-11.3,9.1-20.4,20.4-20.4h61.2v-40.8H418.4z M273.5,421.2c0-22.5,18.3-40.7,40.7-40.7h3v133.9h-41.2c-0.9,0-1.7,0.1-2.6,0.3L273.5,421.2L273.5,421.2z M704.7,723.9c0,20.3-16.5,36.8-36.8,36.8H332.1c-20.3,0-36.8-16.5-36.8-36.8V555.8c0.8,0.1,1.5,0.2,2.3,0.2h51.2h307h48.8L704.7,723.9L704.7,723.9z M726.5,514.3h-38.6V380.6c21.5,1.1,38.6,18.8,38.6,40.5V514.3z"/></g>
</svg>