<?xml version="1.0" encoding="utf-8"?>
<!-- Svg Vector Icons : http://www.sfont.cn -->
<!DOCTYPE svg PUBLIC "-//W3C//DTD SVG 1.1//EN" "http://www.w3.org/Graphics/SVG/1.1/DTD/svg11.dtd">
<svg version="1.1" xmlns="http://www.w3.org/2000/svg" xmlns:xlink="http://www.w3.org/1999/xlink" x="0px" y="0px" viewBox="0 0 1000 1000" enable-background="new 0 0 1000 1000" xml:space="preserve">
<metadata> Svg Vector Icons : http://www.sfont.cn </metadata>
<g><path d="M905.5,535.2c0,116.1,0,230.5,0,346.6c-270.9,0-540.1,0-811.1,0c0-230.5,0-462.7,0-693.2c98.5,0,195.3,0,293.8,0c54.5,0,54.5-84.4,0-84.4c-110.8,0-223.4,0-336,0c-22.9,0-42.2,19.4-42.2,42.2C10,405,10,663.6,10,924c0,22.9,19.4,42.2,42.2,42.2c295.6,0,589.4,0,885,0c3.5,0,7,0,10.6,0c22.9,0,42.2-19.4,42.2-42.2c0-130.2,0-258.6,0-388.8C991.7,480.6,905.5,480.6,905.5,535.2z M284.5,570.4c0,38.7,0,77.4,0,117.9c0,22.9,19.4,42.2,42.2,42.2c36.9,0,75.7,0,112.6,0c26.4,0,45.7-1.8,65.1-21.1c51-49.3,100.3-98.5,151.3-147.8C763,456,870.3,352.2,977.7,246.6c15.8-15.8,15.8-44,0-59.8c-47.5-47.5-95-93.2-142.5-140.8c-8.8-8.8-19.4-12.3-28.2-12.3c-10.6,0-21.1,3.5-29.9,12.3C671.5,149.9,566,255.4,460.4,359.3c-51,51-102,100.3-153.1,151.3C289.7,528.2,284.5,545.7,284.5,570.4z M370.7,568.6C514.9,424.3,661,280.1,807,135.8c28.2,26.4,54.5,54.5,82.7,80.9C743.7,359.3,597.6,503.5,449.8,646c-26.4,0-52.8,0-79.2,0C370.7,619.6,370.7,595,370.7,568.6z"/></g>
</svg>