<?xml version="1.0" encoding="utf-8"?>
<!-- Svg Vector Icons : http://www.sfont.cn -->
<!DOCTYPE svg PUBLIC "-//W3C//DTD SVG 1.1//EN" "http://www.w3.org/Graphics/SVG/1.1/DTD/svg11.dtd">
<svg version="1.1" xmlns="http://www.w3.org/2000/svg" xmlns:xlink="http://www.w3.org/1999/xlink" x="0px" y="0px" viewBox="0 0 1000 1000" enable-background="new 0 0 1000 1000" xml:space="preserve">
<metadata> Svg Vector Icons : http://www.sfont.cn </metadata>
<g><path d="M405.7,477.6c19.6,37.1,45.6,67.7,77.8,92.5c40.1-25.4,75-56.3,104.7-92.5H405.7z M10,500c0,270.7,219.3,490,490,490s490-219.3,490-490c0-270.7-219.3-490-490-490S10,229.3,10,500z M547.5,418.5H681l-9.8,55.7c-37.1,51.5-80.2,95.2-129.9,131c45.6,21.8,100.2,35.5,163.2,41.4C686.8,669,670,692,653.7,716.5c-70.7-10.1-132.3-32.2-184.1-66.8c-62.8,33.1-133.8,56.3-213.1,70.1c-8-24.8-16.8-46.8-26-65.5c68.9-8.3,130.8-24.5,185.3-48.4c-29.4-28.5-54.5-62.2-75.6-101.4l47.2-27h-75.6l10.7-59.1H474l9.5-54.8h-188l10.4-59.1h188l10.7-60.3h73.5l-10.4,60.3h187.1l-10.4,59.1H557.3L547.5,418.5z"/></g>
</svg>