<?xml version="1.0" encoding="utf-8"?>
<!-- Svg Vector Icons : http://www.sfont.cn -->
<!DOCTYPE svg PUBLIC "-//W3C//DTD SVG 1.1//EN" "http://www.w3.org/Graphics/SVG/1.1/DTD/svg11.dtd">
<svg version="1.1" xmlns="http://www.w3.org/2000/svg" xmlns:xlink="http://www.w3.org/1999/xlink" x="0px" y="0px" viewBox="0 0 1000 1000" enable-background="new 0 0 1000 1000" xml:space="preserve">
<metadata> Svg Vector Icons : http://www.sfont.cn </metadata>
<g><path d="M803.5,386.8H550c-8.4,0-15.2,6.8-15.2,15.2v30.3c0,8.4,6.8,15.2,15.2,15.2h182.7c25.8-14.5,55-23.8,86-26.5v-19C818.7,393.6,811.9,386.8,803.5,386.8z"/><path d="M534.7,533.2c0,8.4,6.8,15.1,15.2,15.1h91.5c9.8-22.5,23.3-42.9,39.8-60.6H550c-8.4,0-15.2,6.8-15.2,15.1V533.2z"/><path d="M677.7,775.1H139.4c-35.7,0-64.7-29-64.7-64.7V289.7c0-35.7,29-64.7,64.7-64.7h647.2c35.7,0,64.7,29,64.7,64.7v130.9c22.7,1.5,44.5,6.6,64.7,14.6V224.9c0-35.8-29-64.7-64.7-64.7H74.7c-35.7,0-64.7,29-64.7,64.7v550.1c0,35.7,29,64.7,64.7,64.7h708.5C741.8,829,705.3,806.1,677.7,775.1z"/><path d="M376.3,414.5c0-47.8-47.5-92.1-96.4-92.1c-48.9,0-93.8,39.3-93.8,87.1c0,47.8,44.9,101,93.8,101C330.6,510.5,376.3,462.3,376.3,414.5z"/><path d="M107.5,690.4v19.6h346.8c0.2-3.5,0-24.2,0-27.8c0-89-53.9-155.2-173.1-155.2C162,526.9,107.5,596.5,107.5,690.4z"/><path d="M534.7,634.2c0,8.4,6.8,15.1,15.2,15.1h74.4c-0.4-5.3-0.6-10.6-0.6-16c0-15.3,1.6-30.2,4.7-44.6H550c-8.4,0-15.2,6.8-15.2,15.1V634.2z"/><path d="M980.1,600.3h-29.7c-2.7-9.8-6.6-19.1-11.5-27.8l21-21c3.9-3.9,3.9-10.1,0-14l-33.9-33.9c-1.9-1.9-4.5-2.9-7-2.9c-2.6,0-5,1-6.9,2.9l-21,21c-8.7-4.9-18-8.7-27.8-11.5v-29.7c0-5.4-4.5-9.9-9.9-9.9h-47.9c-5.4,0-9.9,4.5-9.9,9.9v29.7c-9.8,2.7-19.1,6.6-27.8,11.5l-21-20.9c-1.9-1.9-4.5-2.9-6.9-2.9c-2.5,0-5.1,0.9-7,2.9l-33.9,33.9c-3.8,3.9-3.8,10.1,0,14l21,21c-4.9,8.7-8.7,18-11.5,27.8h-29.7c-5.4,0-9.9,4.5-9.9,9.9v47.9c0,5.4,4.5,9.9,9.9,9.9h29.7c2.7,9.8,6.6,19.1,11.5,27.8l-21,21c-3.8,3.9-3.8,10.1,0,14l33.9,33.9c1.9,1.9,4.5,2.8,7,2.8c2.5,0,5-1,6.9-2.8l21-21c8.7,4.9,18,8.7,27.8,11.5v29.7c0,5.4,4.5,9.9,9.9,9.9h47.9c5.4,0,9.9-4.5,9.9-9.9v-29.7c9.8-2.7,19.1-6.6,27.8-11.5l21,21c1.9,1.9,4.5,2.8,6.9,2.8c2.6,0,5-1,7-2.8l33.9-33.9c3.9-3.9,3.9-10.1,0-14l-21-21c4.9-8.7,8.7-18,11.5-27.8h29.7c5.4,0,9.9-4.5,9.9-9.9v-47.9C990,604.8,985.5,600.3,980.1,600.3L980.1,600.3z M913.8,657.7c-1.9,6.8-4.6,13.4-8,19.4l-12.1,21.3l-21.3,12.1c-6,3.4-12.5,6.1-19.4,8l-23.6,6.6l-23.6-6.6c-6.8-1.9-13.4-4.6-19.4-8l-21.3-12.1l-12.1-21.3c-3.4-6-6.1-12.5-8-19.4l-6.5-23.6l6.6-23.6c1.9-6.8,4.6-13.4,8-19.4l12.1-21.3l21.3-12.1c6-3.4,12.5-6.1,19.4-8l23.6-6.6l23.6,6.6c6.8,1.9,13.4,4.6,19.4,8l21.3,12.1l12.1,21.3c3.4,6,6.1,12.5,8,19.4l6.6,23.6L913.8,657.7L913.8,657.7z"/><path d="M829.5,574c-33.2,0-60.2,26.9-60.2,60.2c0,33.2,26.9,60.2,60.2,60.2c33.2,0,60.2-26.9,60.2-60.2C889.7,600.9,862.8,574,829.5,574L829.5,574z M829.5,656.3c-12.2,0-22.2-9.9-22.2-22.2c0-12.2,9.9-22.2,22.2-22.2c12.2,0,22.2,9.9,22.2,22.2C851.7,646.4,841.8,656.3,829.5,656.3L829.5,656.3z"/></g>
</svg>