<?xml version="1.0" encoding="utf-8"?>
<!-- Svg Vector Icons : http://www.sfont.cn -->
<!DOCTYPE svg PUBLIC "-//W3C//DTD SVG 1.1//EN" "http://www.w3.org/Graphics/SVG/1.1/DTD/svg11.dtd">
<svg version="1.1" xmlns="http://www.w3.org/2000/svg" xmlns:xlink="http://www.w3.org/1999/xlink" x="0px" y="0px" viewBox="0 0 1000 1000" enable-background="new 0 0 1000 1000" xml:space="preserve">
<metadata> Svg Vector Icons : http://www.sfont.cn </metadata>
<g><path d="M623,351h123.3v60.9H623V351z"/><path d="M623.6,469.4h184.1v61.4H623.6V469.4z"/><path d="M881.1,114.3H118.9C66.7,114.3,10,165.4,10,219.8c0,54.4,0,466.7,0,560.3c0,56.6,55,105.5,108.9,105.5h762.2c53.9,0,108.9-51.1,108.9-105.5c0-42,0-509.2,0-560.3C990,168.7,935,114.3,881.1,114.3z M759.1,825.7c-81.7,0-437.9,0-517.9,0c-110.6,0-108.9,0-108.9-105.5c0-74.2,0-303.6,0-381.1c0-105.5,0-105.5,108.9-105.5c83.4,0,439.6,0,517.9,0c108.9,0,108.9-1.7,108.9,105.5c0,111.9,0,302,0,348.3C868,789.6,869.7,825.7,759.1,825.7z"/><path d="M507.7,555.2c33.2-27.3,54.3-68.1,54.3-113.6c0-82.3-68.8-149-153.7-149c-84.9,0-153.7,66.7-153.7,149c0,45.3,20.8,85.8,53.7,113.1c-68.6,34.7-115.5,104.3-115.5,184.6c0,10,0.7,19.8,2.2,29.5h63.6c-2.2-9.9-3.3-20.2-3.3-30.8c0-78.5,63-142.7,142.6-147.8c3.5,0.2,7,0.4,10.5,0.4c3.4,0,6.8-0.1,10.2-0.3c79.5,5.2,142.4,69.4,142.4,147.7c0,10.6-1.1,20.8-3.3,30.8H620c1.4-9.6,2.2-19.5,2.2-29.5C622.2,659.5,575.8,590.1,507.7,555.2z M408.2,529.3c-50,0-90.5-39.3-90.5-87.7c0-48.4,40.5-87.7,90.5-87.7c50,0,90.5,39.3,90.5,87.7C498.7,490.1,458.2,529.3,408.2,529.3z"/></g>
</svg>