<?xml version="1.0" encoding="utf-8"?>
<!-- Svg Vector Icons : http://www.sfont.cn -->
<!DOCTYPE svg PUBLIC "-//W3C//DTD SVG 1.1//EN" "http://www.w3.org/Graphics/SVG/1.1/DTD/svg11.dtd">
<svg version="1.1" xmlns="http://www.w3.org/2000/svg" xmlns:xlink="http://www.w3.org/1999/xlink" x="0px" y="0px" viewBox="0 0 1000 1000" enable-background="new 0 0 1000 1000" xml:space="preserve">
<metadata> Svg Vector Icons : http://www.sfont.cn </metadata>
<g><path d="M950.7,725.3c-50-35.6-127-16.7-174.8-80.2c0,0-17.9-20.1,22.2-69c40.1-49.2,43.5-127,33.4-187.3c-10-59.9-66.6-100.1-125.9-100.1c-58.9,0-115.6,40.2-125.8,100.1c-9.9,60.3-6.4,138.1,33.7,187.3c20.1,24.6,25.6,42,26.2,53.1c18.3,6.1,37.2,14.3,54.4,26.8c75.6,53.7,71.4,157.2,68.7,186.2h225.9C988.7,842.2,1001,760.9,950.7,725.3L950.7,725.3z M664.3,697.7c-17.3-12.3-37.3-19.2-58.2-24.8c-54-14.1-115.2-17.8-158-74.4c0,0-21.9-24.8,27.6-85.3c49.8-60.7,53.8-157,41.3-231.4c-12.3-74.4-82.6-124-155.6-124c-72.8,0-143.1,49.6-155.5,124c-12.5,74.4-8.4,170.6,41.3,231.4c49.5,60.5,27.5,85.3,27.5,85.3c-42.5,56.1-103.2,60.2-156.9,74c-21.3,5.6-41.7,12.7-59.3,25.2c-62.3,44.1-46.9,144.5-46.9,144.5h6.9h283h59.8h61.5h282.7h5.6C711.2,842.2,726.5,741.7,664.3,697.7L664.3,697.7z"/></g>
</svg>