<?xml version="1.0" encoding="utf-8"?>
<!-- Svg Vector Icons : http://www.sfont.cn -->
<!DOCTYPE svg PUBLIC "-//W3C//DTD SVG 1.1//EN" "http://www.w3.org/Graphics/SVG/1.1/DTD/svg11.dtd">
<svg version="1.1" xmlns="http://www.w3.org/2000/svg" xmlns:xlink="http://www.w3.org/1999/xlink" x="0px" y="0px" viewBox="0 0 1000 1000" enable-background="new 0 0 1000 1000" xml:space="preserve">
<metadata> Svg Vector Icons : http://www.sfont.cn </metadata>
<g><path d="M500,10C229.4,10,10,229.4,10,500c0,270.6,219.4,490,490,490c270.6,0,490-219.4,490-490C990,229.4,770.6,10,500,10z M499.5,932.6C261.2,932.6,68,739.5,68,501.1S261.2,69.7,499.5,69.7C737.8,69.7,931,262.8,931,501.1C931,739.4,737.8,932.6,499.5,932.6z"/><path d="M771.7,581.1l0.6-54.6V288.9c-0.4-40.3-23.5-60.4-69.2-60.4H537.6c-35.6,0-53.4,21.5-53.4,64.6v213v37v38.1H716L771.7,581.1L771.7,581.1z M676.1,506h-95.7V304.1H645c20.7,0,31.1,12.5,31.1,37.6V506z"/><path d="M256.5,454.3h-27.6l0.6,306.9h22.9c20.7-2.7,31.1-15.3,31.1-37.6V497.2C283.1,468.6,274.1,454.3,256.5,454.3z"/><path d="M438.4,453.8c-7,0-13.1,11.9-18.2,35.8c-5.1,23.9-7.6,52.2-7.6,85.1c0,33.7,2.5,62.4,7.6,86.3c5.1,23.9,11.1,35.8,18.2,35.8c7,0,13.1-11.9,18.2-35.8c5.1-23.9,7.6-52.6,7.6-86.3c0-32.9-2.5-61.2-7.6-85.1C451.5,465.7,445.4,453.8,438.4,453.8z"/><path d="M397.9,305.9l27.6-0.6c23.9-3.1,36.8-17.6,38.7-43.4l-0.6-29.3l-235.3-0.6l-0.6,75.1h38.7c25,0,37.6,6.9,37.6,20.5v20.5h-77.5V425h25.8c34.4,0,51.6,20.3,51.6,61v295.8h93.9V425h72.2v-76.9h-72.2V305.9z"/><path d="M717.1,602.2h-49.3c-18.4-0.8-31.1,3.3-38.1,12.3l-60.4,55.7l11.7-64h-89.2l-14.1,130.9c-2,25.4,4.1,40.7,18.2,45.8l35.8,0.6c10.6-0.4,20.5-5.7,29.9-15.8l84.5-79.2l17.6-1.2c8.6-0.8,14.1,6.3,16.4,21.1l14.1,70.4h88.6l-35.2-152.6C744.1,611.8,734,603.8,717.1,602.2z"/></g>
</svg>