<?xml version="1.0" encoding="utf-8"?>
<!-- Svg Vector Icons : http://www.sfont.cn -->
<!DOCTYPE svg PUBLIC "-//W3C//DTD SVG 1.1//EN" "http://www.w3.org/Graphics/SVG/1.1/DTD/svg11.dtd">
<svg version="1.1" xmlns="http://www.w3.org/2000/svg" xmlns:xlink="http://www.w3.org/1999/xlink" x="0px" y="0px" viewBox="0 0 1000 1000" enable-background="new 0 0 1000 1000" xml:space="preserve">
<metadata> Svg Vector Icons : http://www.sfont.cn </metadata>
<g><g transform="translate(0.000000,72.000000) scale(0.100000,-0.100000)"><path d="M4586.7-195.6C2910.1-762.4,1717.6-2120.2,1505-3726l-82.6-566.7H761.2H100l920.9-909.1l909.2-920.9l909.2,920.9l920.9,909.1h-684.8c-625.8,0-673,23.6-673,271.5c0,1050.9,1086.3,2467.8,2172.5,2833.7c1287,436.9,2491.3,153.5,3459.6-802.9c649.4-649.4,980-1440.5,980-2302.4c0-1771-1534.9-3306-3306-3306c-614,0-1475.9,283.3-1936.4,637.5L3382.4-6666l-318.8-330.6l-307-318.8l259.8-259.7c153.5-130,590.4-389.7,980-578.6c602.2-283.4,861.9-330.6,1712.1-330.6c850.1,0,1109.9,47.2,1712.1,330.6c920.9,425,1723.8,1228,2148.9,2137.1c283.3,614,330.6,873.8,330.6,1723.9c0,850.2-47.3,1109.9-330.6,1723.9C8896.4-1116.6,7479.5-160.2,5897.3-77.5C5413.3-65.8,4858.3-113,4586.7-195.6z"/><path d="M5236.1-3572.5v-1180.7l897.3-543.1c484.2-295.2,944.6-555,1015.5-566.7c59-11.9,188.9,94.4,283.3,224.3c165.3,248,141.7,271.5-625.8,720.3L6003.6-4458l-35.4,1027.2l-35.4,1027.2h-342.5h-354.2V-3572.5z"/></g></g>
</svg>