<?xml version="1.0" encoding="utf-8"?>
<!-- Svg Vector Icons : http://www.sfont.cn -->
<!DOCTYPE svg PUBLIC "-//W3C//DTD SVG 1.1//EN" "http://www.w3.org/Graphics/SVG/1.1/DTD/svg11.dtd">
<svg version="1.1" xmlns="http://www.w3.org/2000/svg" xmlns:xlink="http://www.w3.org/1999/xlink" x="0px" y="0px" viewBox="0 0 1000 1000" enable-background="new 0 0 1000 1000" xml:space="preserve">
<metadata> Svg Vector Icons : http://www.sfont.cn </metadata>
<g><path d="M905.5,166.5c-46.7,0-84.5,37.8-84.5,84.4c0,22.1,8.6,42.2,22.5,57.3L660.1,615.6c-5.3-1.1-10.9-1.6-16.5-1.6c-18.8,0-36.2,6.2-50.2,16.6L387.8,498.5c1.5-6.3,2.4-12.9,2.4-19.6c0-46.6-37.8-84.4-84.5-84.4s-84.5,37.8-84.5,84.4c0,18.2,5.8,35,15.6,48.7L124.4,670.2c-9.3-3.5-19.4-5.5-29.9-5.5c-46.7,0-84.5,37.8-84.5,84.4s37.8,84.4,84.5,84.4c46.7,0,84.5-37.8,84.5-84.4c0-17.7-5.4-34-14.7-47.6l112.9-143.2c8.9,3.2,18.5,5.1,28.5,5.1c21.5,0,41.1-8.1,56-21.3l201.8,129.7c-2.8,8.4-4.4,17.4-4.4,26.8c0,46.6,37.8,84.4,84.5,84.4s84.5-37.8,84.5-84.4c0-22.7-9-43.2-23.5-58.4l183-306.6c5.8,1.2,11.8,2,17.9,2c46.7,0,84.5-37.8,84.5-84.4S952.2,166.5,905.5,166.5z M94.5,782.8c-18.7,0-33.8-15.1-33.8-33.8c0-18.7,15.1-33.8,33.8-33.8c18.7,0,33.8,15.1,33.8,33.8C128.3,767.7,113.1,782.8,94.5,782.8z M305.7,512.7c-18.7,0-33.8-15.1-33.8-33.8c0-18.7,15.1-33.8,33.8-33.8c18.7,0,33.8,15.1,33.8,33.8C339.5,497.5,324.4,512.7,305.7,512.7z M643.6,732.2c-18.7,0-33.8-15.1-33.8-33.8c0-18.7,15.1-33.8,33.8-33.8c18.7,0,33.8,15.1,33.8,33.8C677.4,717.1,662.3,732.2,643.6,732.2z M905.5,284.7c-18.7,0-33.8-15.1-33.8-33.8c0-18.7,15.1-33.8,33.8-33.8c18.7,0,33.8,15.1,33.8,33.8C939.3,269.6,924.2,284.7,905.5,284.7z"/></g>
</svg>