<?xml version="1.0" encoding="utf-8"?>
<!-- Svg Vector Icons : http://www.sfont.cn -->
<!DOCTYPE svg PUBLIC "-//W3C//DTD SVG 1.1//EN" "http://www.w3.org/Graphics/SVG/1.1/DTD/svg11.dtd">
<svg version="1.1" xmlns="http://www.w3.org/2000/svg" xmlns:xlink="http://www.w3.org/1999/xlink" x="0px" y="0px" viewBox="0 0 1000 1000" enable-background="new 0 0 1000 1000" xml:space="preserve">
<metadata> Svg Vector Icons : http://www.sfont.cn </metadata>
<g><g transform="translate(0.000000,511.000000) scale(0.100000,-0.100000)"><path d="M2905.5,3319.9l-400-200.9l-97.6,111c-51.7,61.2-126.3,143.5-162.7,183.7l-67,70.8l-866.9-752.1c-476.5-413.4-874.6-759.7-884.1-769.3c-9.6-9.6,36.4-78.5,107.2-160.8c67-78.5,122.5-147.4,122.5-153.1s-124.4-160.8-277.5-344.5L100,969.9l44-32.5c24.9-17.2,736.8-612.4,1584.5-1320.4L3269.1-1671l239.2-472.7l239.2-470.8l202.9,101.4l202.9,103.3l160.7-134c88-72.7,164.6-124.4,172.2-116.7c5.7,7.7,120.6,145.4,254.5,306.2c134,158.9,248.8,290.9,258.3,290.9c7.7,0,72.7-45.9,143.5-103.3c158.8-126.3,308.1-202.9,394.2-202.9c36.4,0,145.4,17.2,239.2,38.3c95.7,19.1,275.6,55.5,401.9,76.6c160.8,28.7,237.3,49.8,258.3,74.6c26.8,32.6,36.4,30.6,200.9-22.9c627.7-202.8,1039.2-191.4,1416.1,34.5c105.3,63.1,120.6,67,218.2,57.4c162.7-19.1,174.1-24.9,174.1-86.1c0-80.4,53.6-319.6,84.2-378.9c44-84.2,109.1-103.3,306.2-89.9c95.7,5.7,210.5,15.3,252.6,21l80.4,9.6l11.5-91.9c24.9-166.5,88-463.1,111-512.9c34.4-76.6,51.7-78.5,528.2-17.2l80.4,9.6v1559.7v1557.7h-338.7c-375.1,0-411.4-9.6-474.6-109.1l-38.3-61.2l-264.1-1.9c-260.3,0-264.1,0-310-49.8c-26.8-28.7-51.7-80.4-59.3-114.8c-11.5-59.3-17.2-65.1-84.2-65.1c-112.9,0-396.1,53.6-553.1,107.2c-241.1,80.4-830.5,377-1465.9,736.8c-407.6,229.6-518.6,275.6-660.2,273.7c-139.7-1.9-315.8-61.2-562.6-183.7c-145.4-72.7-151.2-74.6-185.6-40.2c-19.1,19.1-386.6,738.7-815.2,1597.9l-780.8,1561.6L2905.5,3319.9z M3429.8,3118.9c72.7-151.2,491.8-997,933.9-1881.2c442.1-884.1,811.4-1628.6,819-1653.4c53.6-174.2-139.7,199-947.3,1827.6c-842,1697.4-918.6,1844.8-970.2,1858.2c-28.7,7.7-70.8,11.5-91.9,7.7c-21.1-3.8-413.4-193.3-872.6-424.8c-748.3-373.2-838.2-422.9-859.2-476.5c-30.6-74.6-105.3,84.2,1232.4-2606.5c671.7-1351.1,1058.3-2108.9,1087-2128c23-17.2,57.4-30.6,76.5-30.6c19.1,0,421,193.3,893.7,430.6c788.4,394.2,861.2,434.4,880.3,488c17.2,51.7,24.9,57.4,55.5,40.2c101.4-53.6,76.5-74.6-365.5-287.1c-233.5-114.8-675.5-333-983.7-486.1L3759-2484.4l-520.5,1048.7c-285.1,576-832.5,1678.3-1215.2,2449.5l-694.7,1400.8l979.8,486.1c539.7,267.9,981.7,488,985.5,488C3297.8,3390.7,3359,3268.2,3429.8,3118.9z M2415.6,3084.5c0-17.2-24.9,0-65.1,42.1c-74.6,80.4-124.4,111-179.9,111c-21,0-216.3-153.1-457.4-361.7c-231.6-199-438.2-367.4-461.2-375.1c-21.1-5.7-40.2-23-40.2-36.4c0-13.4-80.4-91.9-176.1-174.1c-336.8-289-378.9-333-378.9-403.8c0-57.4,112.9-193.3,1021.9-1240.1C2241.4-0.4,2712.2-549.6,2723.7-574.5c19.1-36.4,15.3-34.4-34.4,13.4C2649-519,1200.4,1147.8,566.9,1882.7c-24.9,28.7,51.7,99.5,801.8,750.2l828.6,719.5l109.1-120.6C2367.7,3166.8,2415.6,3099.8,2415.6,3084.5z M3138.9,3099.8c38.3-44,719.5-1412.3,708.1-1423.8c-3.8-3.8-47.8,7.7-99.5,24.9c-124.4,38.3-445.9,44-574.1,7.7c-229.6-65.1-470.8-220.1-606.6-390.4c-68.9-86.1-153.1-245-197.1-367.4c-9.6-28.7-97.6,130.1-365.5,667.9c-296.6,587.5-354,715.7-348.3,775l5.7,68.9l669.8,338.7c369.3,185.6,692.8,338.7,719.6,338.7C3077.7,3141.9,3116,3122.8,3138.9,3099.8z M2157.2,3007.9c21.1-21,34.5-40.2,28.7-42.1c-65.1-42.1-650.7-317.7-629.6-296.6c15.3,13.4,126.3,111,245,212.4c189.5,162.7,223.9,185.6,267.9,174.1C2097.9,3050,2138.1,3027.1,2157.2,3007.9z M1602.2,1693.2c191.4-388.5,346.4-713.8,342.5-725.3c-3.8-13.4-13.4-74.6-21-137.8l-13.4-114.8l-530.1,610.5c-434.4,501.4-532,621.9-532,667.9c0,47.8,32.5,84.2,195.2,229.6c107.2,93.8,197.1,172.2,200.9,172.2C1248.2,2395.6,1409,2079.8,1602.2,1693.2z M3741.8,1630.1c61.2-19.1,153.1-61.2,204.8-93.8c378.9-243,491.8-711.9,275.6-1140.6C4151.3,256,3927.4,41.7,3776.2-31c-269.8-130.1-568.4-155-805.7-63.2c-49.8,17.2-49.8,21.1-30.6,116.7l19.1,97.6l97.6-95.7c55.5-53.6,112.9-97.6,130.1-97.6c17.2,0,78.5,24.9,139.7,57.4c59.3,30.6,143.5,67,185.6,80.4c76.5,22.9,156.9,89.9,241.1,202.8c24.9,32.5,111,107.2,191.4,164.6c128.2,91.9,271.7,252.6,271.7,304.3c0,7.7-38.3-7.7-82.3-34.4c-45.9-26.8-97.6-47.8-114.8-47.8c-19.1,0-32.5-9.6-32.5-19.1c0-45.9-59.3-40.2-97.6,7.7c-21,26.8-47.8,49.8-59.3,49.8c-9.6,0-67-42.1-128.2-95.7C3640.3,545,3577.2,501,3560,501c-15.3,0-51.7,28.7-78.5,63.1l-49.8,61.2l44,11.5c45.9,13.4,44,13.4-80.4,53.6c-91.9,28.7-93.8,26.8-34.5-26.8c28.7-26.8,51.7-57.4,51.7-67c0-7.7,5.7-28.7,11.5-44c5.7-19.1-3.8-34.5-28.7-42.1c-21.1-5.7-40.2-26.8-45.9-44c-7.7-38.3-76.5,97.6-78.5,156.9c-1.9,19.1-21,42.1-44,51.7c-55.5,21-55.5,5.7,3.8-88c59.3-95.7,59.3-124.4,5.7-118.7c-40.2,3.8-44-3.8-42.1-88c0-70.8-5.7-89.9-26.8-80.4c-13.4,5.7-47.8,9.6-72.7,9.6c-30.6,0-44,7.7-36.4,21c7.7,11.5-3.8,32.5-26.8,47.8c-23,15.3-40.2,45.9-40.2,65.1c0,63.1-23,95.7-65.1,95.7c-57.4,0-88,34.4-88,101.4c0,151.2-65.1-59.3-86.1-277.5c-9.6-109.1-9.6-109.1,61.2-158.8c80.4-53.6,47.8-65.1-59.3-21c-57.4,23-65.1,36.4-78.5,128.2c-13.4,78.5-19.1,89.9-24.9,49.8c-3.8-30.6,1.9-80.4,13.4-112.9c11.5-32.5,15.3-65.1,9.6-70.8c-17.2-17.2-84.2,74.6-86.1,120.6c0,38.3-1.9,36.4-19.1-5.7c-17.2-42.1-21.1-44-45.9-19.1c-36.4,36.4-105.3,229.6-105.3,294.7c0,30.6,32.5,91.9,86.1,156.9c67,80.4,118.7,120.6,222,170.3c74.6,36.4,137.8,65.1,141.6,65.1c3.8,0,1.9-32.5-3.8-70.8l-9.6-72.7l68.9,95.7c57.4,80.4,76.5,93.8,122.5,89.9c45.9-5.7,55.5,0,53.6,36.4c-1.9,34.4,11.5,45.9,61.2,57.4c32.5,5.7,61.2,5.7,61.2-3.8c0-9.6,15.3-17.2,34.4-15.3c51.7,1.9,572.2,262.2,526.3,264.1c-23,1.9-47.8,11.5-53.6,21.1c-7.7,11.5,26.8,19.1,89.9,19.1c99.5,0,105.3-3.8,216.2-114.8c114.8-114.8,114.8-116.7,156.9-311.9c23-107.2,42.1-168.4,42.1-137.8c1.9,32.5,11.5,89.9,23,128.2c17.2,67,13.4,82.3-57.4,200.9c-78.5,135.9-187.5,248.8-319.6,336.8c-61.2,42.1-97.6,51.7-191.4,51.7c-61.2,0-151.2-11.5-199-23c-47.8-11.5-176.1-19.1-287.1-17.2c-145.4,3.8-225.8-3.8-292.8-26.8c-135.9-45.9-153.1-24.9-32.5,44C3169.6,1681.7,3450.9,1718.1,3741.8,1630.1z M752.6,1534.4c0-11.5-89.9-128.2-200.9-260.3c-218.2-262.2-237.3-310-156.9-398c23-26.8,654.5-556.9,1400.8-1180.8c1173.1-976,1490.8-1249.6,1366.4-1173.1C3125.5-1456.7,377.5,835.9,299,908.6l-59.3,55.5l241.1,294.7C712.4,1538.2,752.6,1578.4,752.6,1534.4z M1301.8,918.2L1778.3,369V187.2c-1.9-168.4-3.8-179.9-34.5-158.8c-17.2,13.4-290.9,239.2-606.6,501.4c-338.7,283.2-581.8,499.5-597.1,532c-15.3,38.3-17.2,65.1-1.9,95.7c28.7,61.2,252.6,323.4,271.7,315.8C819.6,1469.3,1039.6,1220.5,1301.8,918.2z M2528.5,954.5c23-34.5,42.1-68.9,42.1-76.5c0-21.1-135.9-195.2-158.8-202.9c-11.5-3.8-15.3,28.7-5.7,95.7c15.3,118.6,49.8,246.9,67,246.9C2478.7,1017.7,2503.6,989,2528.5,954.5z M2071.1,753.6c36.4-72.7,34.5-80.4-11.5-195.2c-21-51.7-30.6-61.2-42.1-38.3c-24.9,42.1-44,243-30.6,287.1C2002.2,856.9,2027.1,841.6,2071.1,753.6z M2224.2,449.3c45.9-93.8,103.3-214.3,128.2-269.8c44-97.6,45.9-99.5,5.7-80.4c-21.1,11.5-44,34.4-49.8,49.8c-7.7,23-15.3,23-38.3,3.8c-24.9-21-40.2-11.5-93.8,49.8c-36.4,40.2-82.3,109.1-103.3,153.1l-38.3,80.4l42.1,89.9c23,49.8,45.9,90,53.6,90C2136.2,615.8,2178.3,541.2,2224.2,449.3z M4639.3,108.7c135.9-277.5,246.9-512.9,246.9-522.4c0-21-694.7-80.4-928.1-80.4c-137.8,0-183.7-7.6-233.5-38.3c-78.5-47.8-120.6-130.1-120.6-237.3c0-216.3,118.7-327.2,468.9-438.2c279.4-88,591.3-111,909-68.9c225.8,30.6,344.5,3.8,388.5-90c42.1-86.1,42.1-166.5,0-202.8c-51.7-44-1326.2-666-1366.4-666c-17.2,0-47.8,5.7-65.1,11.5c-28.7,11.5-1073.6,2070.6-1058.3,2085.9c3.8,3.8,45.9-7.7,91.9-24.9c114.8-40.2,394.2-53.6,541.6-26.8c164.6,32.6,403.8,153.1,533.9,269.8c130.1,114.8,252.6,296.6,296.6,436.3c17.2,53.6,34.4,99.5,40.2,99.5C4388.6,615.8,4503.4,388.1,4639.3,108.7z M3814.5,539.3c13.4-24.9,13.4-38.3,1.9-38.3s-28.7,17.2-40.2,38.3c-13.4,24.9-13.4,38.3-1.9,38.3S3803,560.3,3814.5,539.3z M3699.7,478c-11.5-24.9-24.9-59.3-30.6-76.5c-7.7-19.1-30.6-34.4-55.5-34.4c-24.9,0-61.2-5.7-80.4-11.5c-19.1-7.7-1.9,15.3,40.2,49.8c40.2,36.4,84.2,74.6,95.7,88C3703.5,533.5,3718.8,524,3699.7,478z M5892.7,378.5c93.8-44,277.5-143.5,409.5-216.3c451.6-252.6,1043-558.8,1232.4-639.2c231.6-95.7,488-162.7,696.6-179.9l156.9-15.3l1.9-470.8c1.9-258.3,7.7-555,15.3-658.3l11.5-185.6h-57.4c-30.6,0-93.8,9.6-139.7,19.1c-76.6,19.1-86.1,15.3-195.2-59.3c-65.1-44-177.9-101.4-254.5-128.2c-118.7-44-168.4-49.7-357.9-51.7c-241.1,0-411.4,30.6-711.9,124.4c-168.4,53.6-187.5,63.1-187.5,105.3v45.9l111-45.9c250.7-101.4,512.8-111,688.9-21.1c76.6,38.3,162.7,107.2,135.9,107.2c-3.8,0-68.9-13.4-141.6-28.7c-172.2-36.3-334.9-36.3-478.4,0c-166.5,42.1-465,195.2-708.1,361.7c-260.3,179.9-497.6,300.5-744.4,378.9c-187.5,59.3-189.4,59.3-382.7,38.3c-258.3-30.6-451.6-28.7-648.7,5.7c-227.7,40.2-472.7,132-541.6,202.9l-55.5,57.4l76.5-32.5c111-45.9,264.1-28.7,331.1,38.3c42.1,40.2,51.7,68.9,51.7,145.4c0,111-45.9,97.6,489.9,145.5c329.2,28.7,365.5,28.7,463.1,0c158.8-45.9,315.8-57.4,444-32.6c179.9,36.4,667.9,176.1,688.9,197.1c13.4,13.4,3.8,17.2-28.7,9.6c-49.7-11.5-405.7-61.2-549.2-76.5c-72.7-9.6-86.1-3.8-120.6,44c-38.3,53.6-38.3,59.3-9.6,199c17.2,78.5,42.1,183.7,57.4,233.5c15.3,51.7,24.9,93.8,21.1,97.6c-9.6,11.5-120.6-210.5-145.4-290.9c-13.4-42.1-26.8-82.3-32.5-89.9c-7.7-15.3-445.9,478.4-445.9,503.3c0,40.2,518.6,246.9,623.9,246.9C5695.6,462.7,5799,424.4,5892.7,378.5z M1946.7,89.6c23-11.5,38.3-38.3,36.4-59.3c-5.7-89.9-36.4-202.8-53.6-204.7c-26.8-5.8-84.2,172.2-86.1,262.2c0,65.1,3.8,70.8,30.6,47.9C1891.2,122.1,1923.7,101,1946.7,89.6z M5268.9-178.4c109.1-126.3,216.3-250.7,237.3-275.6c32.5-34.5,34.5-42.1,9.6-38.3C5479.4-482.6,5066-10,5025.8,70.4c-28.7,57.4-28.7,57.4,7.7,19.1C5054.6,68.5,5159.8-52.1,5268.9-178.4z M2199.3-113.3c72.7-84.2,143.5-181.8,158.8-214.3c45.9-109.1,53.6-116.7,95.7-128.2c65.1-15.3,57.4-47.8-11.5-53.6c-55.5-5.8-68.9,3.8-120.6,84.2c-30.6,51.7-57.4,78.5-57.4,61.2c0-15.3,26.8-65.1,57.4-107.2c32.5-44,53.6-80.4,47.8-80.4c-30.6,0-124.4,61.2-126.3,82.3c0,11.5-7.7,3.8-19.1-21l-17.2-44l-57.4,40.2c-32.5,23-93.8,88-135.9,143.5c-61.2,82.3-72.7,109.1-57.4,137.8c11.5,19.1,32.5,84.2,49.8,145.4c15.3,59.3,36.4,109.1,45.9,109.1C2059.6,41.7,2126.6-27.2,2199.3-113.3z M9054.2-1043.4c22.9-566.4,65.1-1222.9,91.8-1387.4c9.6-68.9,7.7-70.8-53.6-80.4c-34.5-5.8-147.4-15.3-250.7-21.1c-181.8-11.5-185.6-11.5-202.9,32.5c-34.4,89.9-78.4,415.3-99.5,732.9c-22.9,333-15.3,1236.2,11.5,1297.5c11.5,28.7,42.1,32.5,246.9,32.5h233.5L9054.2-1043.4z M4122.6-647.2c53.6-30.6,47.8-124.4-13.4-185.6c-44-44-59.3-47.8-160.7-40.2c-61.2,3.8-124.4,19.1-141.6,32.5c-40.2,32.6-40.2,143.5,0,181.8C3841.3-622.3,4061.3-616.6,4122.6-647.2z M2827-830.9c40.2-45.9,70.8-88,67-91.8c-3.8-5.8-55.5,34.4-112.9,86.1c-78.5,68.9-95.7,91.8-67,91.8C2735.2-746.7,2786.8-785,2827-830.9z M5996.1-1636.6l67-44h-76.5c-44,0-124.4-11.5-181.8-26.8c-74.6-19.1-112.9-21.1-128.2-7.7c-40.2,32.5-30.6,44,70.8,91.9c67,30.6,93.8,53.6,86.1,72.7C5821.9-1521.8,5837.3-1529.4,5996.1-1636.6z M5588.5-1831.8c53.6-78.5,53.6-99.5,9.6-155c-55.5-68.9-88-32.5-74.6,82.3l11.5,93.8l-97.6-7.7l-99.5-9.6l67,34.5C5492.8-1745.7,5536.8-1755.2,5588.5-1831.8z M6214.2-1835.6c91.9-24.9,164.6-95.7,164.6-158.8c0-80.4-36.4-74.6-49.7,7.6c-13.4,84.2-34.5,91.9-164.6,57.4c-80.4-23-168.4-116.7-168.4-178c0-36.4-19.1-45.9-151.2-76.5c-279.4-63.2-333-63.2-432.5-3.8c-49.8,28.7-84.2,55.5-80.4,59.3c5.7,5.7,65.1,0,134-11.5c116.7-21.1,130.1-19.1,181.8,17.2c63.1,44,118.6,147.4,118.6,220.1c0,38.3,11.5,51.7,53.6,61.3c28.7,5.7,61.2,13.4,70.8,17.2C5934.8-1808.8,6145.4-1816.5,6214.2-1835.6z M5460.2-1940.9c0-61.2-3.8-68.9-42.1-59.3c-24.9,5.8-84.2,17.2-135.9,23c-72.7,11.5-86.1,19.1-68.9,40.2c11.5,13.4,55.5,32.5,99.5,44C5454.5-1862.4,5460.2-1864.3,5460.2-1940.9z M6273.6-2027c7.7-32.5,9.6-61.2,5.8-65.1c-3.8-5.7-57.4-13.4-116.7-21.1c-90-11.5-109.1-7.7-109.1,15.3c0,34.5,51.7,84.2,114.8,109.1C6244.9-1958.1,6260.2-1963.8,6273.6-2027z M4809.6-2090.1c0-7.7-313.8-384.7-363.6-440.2c-9.6-9.6-59.3,21-112.9,65.1c-99.5,84.2-118.7,126.3-32.5,68.9c26.8-17.2,76.5-30.6,109.1-30.6c51.7,0,78.5,19.1,149.3,99.5C4731.1-2132.2,4809.6-2057.6,4809.6-2090.1z M4580-2216.4c-15.3-9.6-36.4-19.1-47.8-19.1c-9.6,0-5.7,9.6,9.6,19.1c15.3,9.6,38.3,19.1,47.8,19.1C4601-2197.3,4595.3-2206.9,4580-2216.4z"/><path d="M2522.7,2464.4c-193.3-84.2-239.2-340.6-88-491.8c214.3-216.2,566.5-23,511,279.4C2911.2,2431.9,2695,2541,2522.7,2464.4z M2807.9,2340.1c49.8-51.7,59.3-74.6,59.3-155c0-82.3-9.6-103.3-63.1-156.9c-53.6-53.6-74.6-63.1-156.9-63.1s-103.3,9.6-156.9,63.1c-53.6,53.6-63.1,74.6-63.1,155c0,99.5,47.8,176.1,134,214.3C2631.8,2428.1,2744.7,2403.2,2807.9,2340.1z"/><path d="M3494.9,992.8c-5.7-9.6,5.7-32.5,24.9-53.6c28.7-32.5,30.6-44,9.6-78.5c-19.1-32.5-19.1-44,9.6-74.6c36.4-40.2,97.6-45.9,202.9-17.2c59.3,17.2,68.9,26.8,55.5,53.6c-9.6,17.2-30.6,65.1-47.8,105.2c-17.2,40.2-44,72.7-63.2,72.7C3581,1010,3504.5,1006.2,3494.9,992.8z M3680.5,856.9c-1.9-40.2-1.9-40.2-28.7-3.8c-36.4,47.8-36.4,70.8,0,57.4C3667.1,902.9,3680.5,879.9,3680.5,856.9z"/></g></g>
</svg>