<?xml version="1.0" encoding="utf-8"?>
<!-- Svg Vector Icons : http://www.sfont.cn -->
<!DOCTYPE svg PUBLIC "-//W3C//DTD SVG 1.1//EN" "http://www.w3.org/Graphics/SVG/1.1/DTD/svg11.dtd">
<svg version="1.1" xmlns="http://www.w3.org/2000/svg" xmlns:xlink="http://www.w3.org/1999/xlink" x="0px" y="0px" viewBox="0 0 1000 1000" enable-background="new 0 0 1000 1000" xml:space="preserve">
<metadata> Svg Vector Icons : http://www.sfont.cn </metadata>
<g><path d="M500.1,267.4c127.4,0,232.5,105.1,232.5,232.5c0,127.4-105.1,232.7-232.5,232.7c-127.4,0-232.7-105.3-232.7-232.7C267.4,372.1,372,267.4,500.1,267.4L500.1,267.4z M621.6,114.3c11.2,3.6,22.3,7.4,33.1,12c11,4.6,21.7,9.5,32.2,15l47-47c14.7-14.9,38.5-15,53.1-0.2v0.2l0.6,0.6l118.2,118c14.7,14.9,14.7,38.7-0.2,53.1l-47,47c5.5,10.7,10.7,21.1,15,32.2c4.4,10.9,8.6,21.7,12,33.1h66.6c20.8,0,37.7,16.9,37.7,37.5l-0.2,3.4v164.5c0,20.8-16.8,37.7-37.5,37.7h-66.6c-3.6,11.2-7.6,22.1-12,33.1h-0.2h0.2c-4.6,11-9.5,21.7-15,32l47,47.2c14.9,14.5,14.9,38.3,0.2,52.9l-0.2,0.2l-0.6,0.6L787,905.8c-14.7,14.5-38.7,14.5-53.1-0.2l-47-47c-10.5,5.3-21.1,10.5-32,15l-1.9,0.6c-10.3,4.4-20.8,8-31.4,11.4v66.5c0,20.9-16.8,37.9-37.7,37.9l-3.2-0.2H416.1c-20.8,0-37.5-16.8-37.5-37.7h-0.2v-66.5c-11.2-3.6-22.3-7.6-32.9-12.2h-0.2c-11-4.4-21.7-9.5-32-14.9l-47,47c-14.7,14.7-38.5,14.7-53.3,0.2v-0.2l-0.6-0.6L94.2,786.8c-14.5-14.7-14.5-38.5,0.2-53.1l47-47c-5.5-10.5-10.5-20.9-15-32c-4.4-10.9-8.6-21.9-12-33.1H47.7c-20.8,0-37.7-16.9-37.7-37.7l0.2-3.4V415.9c0-20.6,16.8-37.5,37.5-37.5h66.6c3.6-11.4,7.6-22.3,12.2-33.1c4.4-11,9.3-21.7,14.9-32.2l-47-47c-14.7-14.5-14.7-38.3-0.2-53.1h0.2l0.6-0.6L213,94.2c14.9-14.9,38.7-14.7,53.3,0.2l47,47c20.8-10.9,42.7-20,65.1-27V47.5c0-20.6,16.8-37.5,37.7-37.5h167.7c20.9,0,37.7,16.9,37.7,37.5V114.3L621.6,114.3z M626,195.8c-15.6-6.3-32-11.8-48.9-15.8c-17.5-3.4-30.7-18.7-30.7-37.1V85.4h-92.5l-0.2,57.5c0,17.1-11.6,32.6-28.9,36.7c-34.8,8.2-67.6,21.7-97.9,40.6c-14.5,8.8-33.9,7.2-46.5-5.5l-40.9-40.9l-65.5,65.7l39.6,39.4c13.3,12,16.6,32.2,6.7,47.8c-9.3,15.2-17.5,31-24.4,47.4c-6.3,15.6-11.8,32-15.8,48.9c-3.2,17.5-18.7,30.7-36.9,30.7H85.2v92.5h57.7v0.2c17.1,0,32.6,11.6,36.7,28.9c4,17.5,9.5,34.5,16.2,50.3c6.9,16.8,15,32.6,24.4,47.6H220c9.1,14.7,7.4,33.9-5.3,46.6l-40.7,40.7l65.5,65.3l39.6-39.4c11.8-13.3,32-16.6,47.8-6.9c15,9.5,30.8,17.7,47.2,24.4v0.2c15.4,6.3,31.8,11.8,48.9,15.8c17.5,3.2,30.8,18.7,30.8,36.9v57.7h92.5v-57.7c0-17.1,11.6-32.6,29.1-36.6c16.9-4,33.1-9.1,48.6-15.4l1.9-0.8c16.4-6.9,32.2-15,47.2-24.4h0.2c14.5-9.1,33.7-7.2,46.5,5.3l40.7,40.7l65.5-65.3L786.5,721c-13.1-11.8-16.4-32-6.7-47.8c9.3-15,17.5-30.8,24.4-47.2c6.3-15.4,11.8-31.8,15.8-48.9c3.2-17.5,18.7-30.7,37.1-30.7h57.7v-92.7h-57.7c-17.1,0-32.7-11.6-36.7-29.1c-4-17.5-9.5-34.3-16.2-50.5c-6.7-16.2-14.7-31.8-23.6-46.1c-9.9-14.7-8.2-34.8,4.8-47.8l40.7-40.7l-65.5-65.7L721,213.5c-11.8,13.1-32,16.4-47.8,6.7C658.1,210.9,642.3,202.7,626,195.8L626,195.8z M500.1,312.5c-103.2,0-187.4,84.2-187.4,187.4c0,102.8,84.5,187.5,187.4,187.5c102.6,0,187.2-84.9,187.2-187.5C687.3,397.1,602.9,312.5,500.1,312.5L500.1,312.5z"/></g>
</svg>