<?xml version="1.0" encoding="utf-8"?>
<!-- Svg Vector Icons : http://www.sfont.cn -->
<!DOCTYPE svg PUBLIC "-//W3C//DTD SVG 1.1//EN" "http://www.w3.org/Graphics/SVG/1.1/DTD/svg11.dtd">
<svg version="1.1" xmlns="http://www.w3.org/2000/svg" xmlns:xlink="http://www.w3.org/1999/xlink" x="0px" y="0px" viewBox="0 0 1000 1000" enable-background="new 0 0 1000 1000" xml:space="preserve">
<metadata> Svg Vector Icons : http://www.sfont.cn </metadata>
<g><g transform="translate(0.000000,512.000000) scale(0.100000,-0.100000)"><path d="M4677.8,5013.3c-26.8-3.8-113-17.2-191.6-28.7c-333.3-47.9-733.6-220.3-988.4-423.3c-212.6-168.6-354.4-362-442.5-603.4c-69-189.6-61.3-352.5,42.1-860.1c57.5-285.4,86.2-475,86.2-572.7c0-141.7-1.9-149.4-59.4-199.2c-180-153.2-233.7-206.9-262.4-258.6c-72.8-137.9-63.2-409.9,21.1-593.8c32.6-69,109.2-170.5,218.4-285.4c151.3-160.9,176.2-197.3,252.8-377.4c113-268.2,216.5-438.7,358.2-591.9C3915.4-1.6,3921.1-18.8,3921.1-444c0-354.4-1.9-367.8-51.7-473.1c-86.2-185.8-268.2-350.5-526.8-482.7c-55.6-26.8-272-120.7-478.9-205c-1089.9-444.4-1612.9-791.1-1946.2-1285.3C630.3-3317.3,523-3740.6,559.4-4309.6c17.2-252.9,63.2-348.6,205-419.5l91.9-44l4089.6-5.8c2917.3-3.8,4118.4,1.9,4191.2,17.2c134.1,26.8,258.6,139.9,291.2,266.3c38.3,139.8,15.3,758.5-34.5,942.4c-114.9,423.3-344.8,791.1-680,1084.2c-314.2,275.8-842.8,570.8-1503.7,837.1c-595.7,241.3-779.6,341-940.5,519.1C6135.5-967,6093.3-844.4,6076.1-559c-15.3,273.9,3.8,459.7,57.5,567c23,42.1,88.1,128.3,147.5,193.5c147.5,160.9,268.2,358.2,369.7,601.5c76.6,185.8,101.5,222.2,241.4,369.7c86.2,92,178.2,205,206.9,252.9c72.8,128.3,113,333.3,90,475c-24.9,149.4-59.4,212.6-166.6,302.7c-49.8,40.2-114.9,97.7-147.5,126.4l-57.5,53.6l11.5,176.2c5.7,97.7,42.1,335.2,80.5,530.6c59.4,293.1,72.8,398.4,74.7,603.4c1.9,285.4-17.2,360.1-116.9,471.2c-72.8,80.4-203,132.2-333.3,132.2c-61.3,0-78.5,9.6-111.1,65.1c-59.4,93.9-302.6,318-431,392.7c-141.7,84.3-402.3,182-595.7,222.2C5250.5,5007.5,4781.2,5032.4,4677.8,5013.3z M8346-3585.5c36.4-34.5,47.9-67.1,47.9-132.2c0-122.6-32.6-180-113-205c-46-11.5-442.5-17.2-1162.7-13.4c-1277.7,7.7-1176.1-11.5-1176.1,208.8c0,113,5.7,134.1,42.1,159c38.3,26.8,182,30.6,1180,30.6H8300L8346-3585.5z"/></g></g>
</svg>