<?xml version="1.0" encoding="utf-8"?>
<!-- Svg Vector Icons : http://www.sfont.cn -->
<!DOCTYPE svg PUBLIC "-//W3C//DTD SVG 1.1//EN" "http://www.w3.org/Graphics/SVG/1.1/DTD/svg11.dtd">
<svg version="1.1" xmlns="http://www.w3.org/2000/svg" xmlns:xlink="http://www.w3.org/1999/xlink" x="0px" y="0px" viewBox="0 0 1000 1000" enable-background="new 0 0 1000 1000" xml:space="preserve">
<metadata> Svg Vector Icons : http://www.sfont.cn </metadata>
<g><g transform="translate(0.000000,511.000000) scale(0.100000,-0.100000)"><path d="M2555,2460L109.9,1585l-5.9-350.4l-4-350.4l350.4-4l352.4-5.9l4-1950.1c2-1073.1,4-1969.9,4-1993.7l2-45.5h2088.7h2088.7l4,689l5.9,687l1738.3,5.9l1736.3,4v-692.9v-692.9h356.4h356.4v1999.6V884.1h356.4H9900l-4,358.3l-5.9,358.3l-2286.7,809.7C6346.3,2856,5245.5,3246,5158.4,3275.7l-158.4,59.4L2555,2460z M2729.2-426.5l-5.9-263.3l-696.9-5.9l-698.9-4v267.3v267.3h702.8h704.8L2729.2-426.5z M4649.6-426.5l-5.9-263.3l-696.9-5.9l-698.9-4v267.3v267.3h702.8h704.8L4649.6-426.5z M6570-426.5l-5.9-263.3l-696.9-5.9l-698.9-4v267.3v267.3h702.8h704.8L6570-426.5z M8490.4-426.5l-5.9-263.3l-696.9-5.9l-698.9-4v267.3v267.3h702.8h704.8L8490.4-426.5z"/></g></g>
</svg>