<?xml version="1.0" encoding="utf-8"?>
<!-- Svg Vector Icons : http://www.sfont.cn -->
<!DOCTYPE svg PUBLIC "-//W3C//DTD SVG 1.1//EN" "http://www.w3.org/Graphics/SVG/1.1/DTD/svg11.dtd">
<svg version="1.1" xmlns="http://www.w3.org/2000/svg" xmlns:xlink="http://www.w3.org/1999/xlink" x="0px" y="0px" viewBox="0 0 1000 1000" enable-background="new 0 0 1000 1000" xml:space="preserve">
<metadata> Svg Vector Icons : http://www.sfont.cn </metadata>
<g><path d="M988.3,449.2c-5.9,43-25.2,77.9-57.9,104.7c-31.3,25.4-67.6,38.1-108.6,38.1H665.9l-13.2,95.7h-92.8l26.8-194h257.6c12.7,0,24-4.1,33.8-12.3c9.8-8.2,15.7-19.1,17.6-32.6c1.9-13.5-1-24.3-8.6-32.1c-7.6-7.9-17.8-11.8-30.5-11.8H599l74.9-98.3h187.6c40.9,0,73.5,12.7,97.8,38.1C984.6,371.3,994.2,406.2,988.3,449.2z M416.5,687.7l52.6-381.2h92.8l-52.6,381.2H416.5z M179.2,693.5c-15,0-28-14.4-39-43.4L10,306.5h100.7l88.2,235.8l145.9-235.8h101.5L228.6,650.7C210.6,679.2,194.1,693.5,179.2,693.5z"/></g>
</svg>