<?xml version="1.0" encoding="utf-8"?>
<!-- Svg Vector Icons : http://www.sfont.cn -->
<!DOCTYPE svg PUBLIC "-//W3C//DTD SVG 1.1//EN" "http://www.w3.org/Graphics/SVG/1.1/DTD/svg11.dtd">
<svg version="1.1" xmlns="http://www.w3.org/2000/svg" xmlns:xlink="http://www.w3.org/1999/xlink" x="0px" y="0px" viewBox="0 0 1000 1000" enable-background="new 0 0 1000 1000" xml:space="preserve">
<metadata> Svg Vector Icons : http://www.sfont.cn </metadata>
<g><path d="M974.6,792.9L570.7,127c-38.8-75-102.4-75-141.3,0l-404,665.9c-38.8,75-1.5,136.4,82.9,136.4h783.3C976.1,929.3,1013.5,867.9,974.6,792.9L974.6,792.9z M450.9,331.9c0-27.1,22-49.1,49.1-49.1c27.1,0,49.2,22,49.2,49.1V584c0,27.1-22,49.1-49.2,49.1c-27.1,0-49.1-22-49.1-49.1V331.9z M500,820.5c-33.9,0-61.4-27.5-61.4-61.4c0-33.9,27.5-61.4,61.4-61.4c33.9,0,61.4,27.5,61.4,61.4C561.4,793,533.9,820.5,500,820.5z"/></g>
</svg>